HIERARCHY
ROOT Hips
{
	OFFSET 0.000000 0.000000 0.000000
	CHANNELS 6 Xposition Yposition Zposition Xrotation Yrotation Zrotation
	JOINT LeftUpLeg_virtual
	{
		OFFSET 0.000000 0.000000 0.000000
		CHANNELS 3 Xrotation Yrotation Zrotation
		JOINT LeftUpLeg
		{
			OFFSET 15.427100 -6.655098 0.678600
			CHANNELS 3 Xrotation Yrotation Zrotation
			JOINT LeftLeg
			{
				OFFSET 4.081073 -39.591068 13.024000
				CHANNELS 3 Xrotation Yrotation Zrotation
				JOINT LeftFoot
				{
					OFFSET -4.081074 -37.707932 -15.979700
					CHANNELS 3 Xrotation Yrotation Zrotation
					JOINT LeftToeBase
					{
						OFFSET 5.346399 -15.068900 20.645000
						CHANNELS 3 Xrotation Yrotation Zrotation
						JOINT LeftToe_End
						{
							OFFSET 2.754700 0.931300 11.300900
							CHANNELS 3 Xrotation Yrotation Zrotation
							End Site
							{
								OFFSET 0 0 0
							}
						}
					}
				}
			}
		}
	}
	JOINT RightUpLeg_virtual
	{
		OFFSET 0.000000 0.000000 0.000000
		CHANNELS 3 Xrotation Yrotation Zrotation
		JOINT RightUpLeg
		{
			OFFSET -15.569500 -6.655098 0.678600
			CHANNELS 3 Xrotation Yrotation Zrotation
			JOINT RightLeg
			{
				OFFSET -4.081825 -39.591045 13.023800
				CHANNELS 3 Xrotation Yrotation Zrotation
				JOINT RightFoot
				{
					OFFSET 4.081824 -37.707954 -15.979600
					CHANNELS 3 Xrotation Yrotation Zrotation
					JOINT RightToeBase
					{
						OFFSET -5.346400 -15.068900 20.645000
						CHANNELS 3 Xrotation Yrotation Zrotation
						JOINT RightToe_End
						{
							OFFSET -2.754700 0.931300 11.300900
							CHANNELS 3 Xrotation Yrotation Zrotation
							End Site
							{
								OFFSET 0 0 0
							}
						}
					}
				}
			}
		}
	}
	JOINT Spine_virtual
	{
		OFFSET 0.000000 0.000000 0.000000
		CHANNELS 3 Xrotation Yrotation Zrotation
		JOINT Spine
		{
			OFFSET -0.279200 12.230698 -2.892100
			CHANNELS 3 Xrotation Yrotation Zrotation
			JOINT Spine1
			{
				OFFSET -0.232667 10.192268 -1.242267
				CHANNELS 3 Xrotation Yrotation Zrotation
				JOINT Spine1_split
				{
					OFFSET -0.232667 10.192268 -1.242267
					CHANNELS 3 Xrotation Yrotation Zrotation
					JOINT Spine2
					{
						OFFSET -0.232667 10.192268 -1.242267
						CHANNELS 3 Xrotation Yrotation Zrotation
						JOINT Neck_virtual
						{
							OFFSET 0.000000 0.000000 0.000000
							CHANNELS 3 Xrotation Yrotation Zrotation
							JOINT Neck
							{
								OFFSET -0.418800 17.814194 8.416900
								CHANNELS 3 Xrotation Yrotation Zrotation
								JOINT Head
								{
									OFFSET 0.000000 7.031097 3.806800
									CHANNELS 3 Xrotation Yrotation Zrotation
									JOINT HeadTop_End
									{
										OFFSET 0.000000 24.646606 12.978600
										CHANNELS 3 Xrotation Yrotation Zrotation
										End Site
										{
											OFFSET 0 0 0
										}
									}
								}
							}
						}
						JOINT LeftShoulder_virtual
						{
							OFFSET 0.000000 0.000000 0.000000
							CHANNELS 3 Xrotation Yrotation Zrotation
							JOINT LeftShoulder
							{
								OFFSET 8.476499 7.247704 -3.868750
								CHANNELS 3 Xrotation Yrotation Zrotation
								JOINT LeftShoulder_split
								{
									OFFSET 8.476499 7.247704 -3.868750
									CHANNELS 3 Xrotation Yrotation Zrotation
									JOINT LeftArm
									{
										OFFSET 9.308998 -2.777710 0.208600
										CHANNELS 3 Xrotation Yrotation Zrotation
										JOINT LeftForeArm
										{
											OFFSET 29.972298 0.000000 0.000000
											CHANNELS 3 Xrotation Yrotation Zrotation
											JOINT LeftHand
											{
												OFFSET 26.026505 0.000000 0.000000
												CHANNELS 3 Xrotation Yrotation Zrotation
												End Site
												{
													OFFSET 0 0 0
												}
											}
										}
									}
								}
							}
						}
						JOINT RightShoulder_virtual
						{
							OFFSET 0.000000 0.000000 0.000000
							CHANNELS 3 Xrotation Yrotation Zrotation
							JOINT RightShoulder
							{
								OFFSET -7.570500 7.247704 -3.868750
								CHANNELS 3 Xrotation Yrotation Zrotation
								JOINT RightShoulder_split
								{
									OFFSET -7.570500 7.247704 -3.868750
									CHANNELS 3 Xrotation Yrotation Zrotation
									JOINT RightArm
									{
										OFFSET -9.308998 -2.777710 0.208500
										CHANNELS 3 Xrotation Yrotation Zrotation
										JOINT RightForeArm
										{
											OFFSET -29.972300 0.000000 0.000000
											CHANNELS 3 Xrotation Yrotation Zrotation
											JOINT RightHand
											{
												OFFSET -26.026505 0.000000 0.000000
												CHANNELS 3 Xrotation Yrotation Zrotation
												End Site
												{
													OFFSET 0 0 0
												}
											}
										}
									}
								}
							}
						}
					}
				}
			}
		}
	}
}
MOTION
Frames: 11
Frame Time: 0.03333333
5.115555 65.897484 137.651108 0.000000 0.000000 0.000000 6.226240 -17.199402 2.211669 36.795827 29.138338 11.203132 30.630759 9.875624 -7.937849 -33.731439 5.987071 -32.307024 -29.438542 1.558297 -8.054116 0.000000 0.000000 0.000000 6.226240 -17.199402 2.211669 -76.257177 -3.945201 -8.307615 54.271522 -0.059722 -8.479121 14.528753 9.871116 5.358334 -2.924137 2.984506 1.673261 0.000000 0.000000 0.000000 6.226240 -17.199402 2.211669 2.333751 -6.264567 0.318761 4.701311 -6.072154 0.825287 0.000000 0.000000 0.000000 0.000000 0.000000 0.000000 4.701334 -6.072134 0.825277 10.491353 0.826943 14.017716 -3.989689 7.552086 -19.237008 0.000000 0.000000 0.000000 4.701334 -6.072134 0.825277 -3.202950 -13.805871 -19.510623 0.000000 0.000000 0.000000 -49.174736 -6.616435 -30.495524 -15.032753 -67.111267 17.775607 0.000000 0.000000 0.000000 4.701334 -6.072134 0.825277 -0.201933 -1.407186 -2.611446 0.000000 0.000000 0.000000 -25.414652 43.192679 15.264527 43.319030 8.483361 -4.892904 0.000000 0.000000 0.000000 
3.833934 66.827858 142.673691 0.000000 0.000000 0.000000 10.201798 -16.256342 1.561831 36.689953 32.830298 12.150816 25.002923 12.662957 -7.511707 -27.189964 4.459498 -34.391963 -34.766824 -1.082545 -11.336271 0.000000 0.000000 0.000000 10.201798 -16.256342 1.561831 -77.093902 -6.791625 -8.952996 57.949251 2.047524 -8.564399 7.953830 7.505061 5.707915 -2.924217 2.984539 1.673303 0.000000 0.000000 0.000000 10.201798 -16.256342 1.561831 2.324911 -7.876205 0.904908 4.899760 -10.154799 2.662428 0.000000 0.000000 0.000000 0.000000 0.000000 0.000000 4.899747 -10.154744 2.662417 8.502558 4.160275 15.381246 -1.540125 11.907278 -20.331216 0.000000 0.000000 0.000000 4.899747 -10.154744 2.662417 -5.170241 -18.664281 -18.158323 0.000000 0.000000 0.000000 -46.432811 -18.052714 -34.485608 -9.204830 -38.217060 16.317073 0.000000 0.000000 0.000000 4.899747 -10.154744 2.662417 0.248725 -2.144185 4.457615 0.000000 0.000000 0.000000 -14.470975 21.706635 4.671655 37.782253 8.308570 -4.381090 0.000000 0.000000 0.000000 
2.477596 68.094353 147.852493 0.000000 0.000000 0.000000 13.033419 -15.984004 0.934639 36.767366 35.935787 13.603212 20.323161 15.578625 -7.391746 -15.329822 2.287686 -37.704181 -42.693235 -5.484965 -12.706115 0.000000 0.000000 0.000000 13.033419 -15.984004 0.934639 -75.382373 -8.616635 -8.762832 60.413433 3.722632 -8.487879 1.328556 5.159551 5.967659 -2.924278 2.984570 1.673347 0.000000 0.000000 0.000000 13.033419 -15.984004 0.934639 2.262831 -8.990045 0.764202 5.005436 -13.331996 3.278268 0.000000 0.000000 0.000000 0.000000 0.000000 0.000000 5.005471 -13.331915 3.278241 6.051131 7.224988 16.300538 0.372247 15.500510 -20.487827 0.000000 0.000000 0.000000 5.005471 -13.331915 3.278241 -5.462527 -21.822308 -15.277250 0.000000 0.000000 0.000000 -41.539834 -28.186693 -42.662656 -9.093027 -26.803757 12.045785 0.000000 0.000000 0.000000 5.005471 -13.331915 3.278241 0.571902 -3.041689 8.393502 0.000000 0.000000 0.000000 -12.235259 14.739599 3.552607 31.986886 9.211514 -2.529631 0.000000 0.000000 0.000000 
1.710327 68.724815 152.556290 0.000000 0.000000 0.000000 15.268391 -22.044506 0.268553 37.789128 37.443346 13.817867 19.921391 18.224574 -7.864293 2.405577 -1.119155 -39.154152 -47.425497 -8.296153 -10.185407 0.000000 0.000000 0.000000 15.268391 -22.044506 0.268553 -72.916579 -7.615215 -2.902865 60.305591 3.180665 -8.344778 -2.322149 5.485621 6.956504 -2.924378 2.984610 1.673396 0.000000 0.000000 0.000000 15.268391 -22.044506 0.268553 2.194411 -9.526269 0.580539 4.996718 -14.597205 3.473517 0.000000 0.000000 0.000000 0.000000 0.000000 0.000000 4.996701 -14.597159 3.473525 3.275433 10.090227 17.157577 2.001215 18.625463 -20.506441 0.000000 0.000000 0.000000 4.996701 -14.597159 3.473525 -5.377031 -23.703591 -13.318976 0.000000 0.000000 0.000000 -42.422343 -33.040299 -48.437741 -9.158988 -21.147546 7.965496 0.000000 0.000000 0.000000 4.996701 -14.597159 3.473525 0.640806 -4.012252 9.540027 0.000000 0.000000 0.000000 -11.078691 12.213177 3.421797 25.842326 9.919229 -0.269010 0.000000 0.000000 0.000000 
1.788239 67.811897 155.878769 0.000000 0.000000 0.000000 16.264905 -30.930348 -0.600896 30.850062 36.544312 16.550291 32.029578 20.220104 -7.020237 13.395854 -6.920557 -27.358540 -40.213412 -0.322093 -20.134385 0.000000 0.000000 0.000000 16.264905 -30.930348 -0.600896 -72.281939 -6.057367 4.300272 60.262301 2.581506 -8.414925 -3.244182 7.418654 8.166797 -2.924465 2.984630 1.673428 0.000000 0.000000 0.000000 16.264905 -30.930348 -0.600896 2.190166 -9.707192 0.784443 4.901199 -14.438202 3.413748 0.000000 0.000000 0.000000 0.000000 0.000000 0.000000 4.901233 -14.438135 3.413738 0.438226 12.660399 17.929923 3.355484 21.266400 -20.351621 0.000000 0.000000 0.000000 4.901233 -14.438135 3.413738 -5.157789 -24.333210 -12.292906 0.000000 0.000000 0.000000 -44.167746 -34.537647 -52.409814 -9.134710 -17.605776 3.835005 0.000000 0.000000 0.000000 4.901233 -14.438135 3.413738 0.571552 -4.957464 9.352154 0.000000 0.000000 0.000000 -10.481201 10.565230 3.211360 19.502972 10.395743 1.972018 0.000000 0.000000 0.000000 
1.716225 68.227722 159.726212 0.000000 0.000000 0.000000 15.763426 -38.261791 -1.126696 24.605258 36.327888 16.926880 36.554981 16.722764 -7.105783 21.662536 -10.991605 -7.093854 14.127965 14.342193 49.247351 0.000000 0.000000 0.000000 15.763426 -38.261791 -1.126696 -69.161307 -4.436350 8.650604 59.384083 2.864950 -8.306178 -4.962376 9.782703 8.918673 -2.924507 2.984638 1.673454 0.000000 0.000000 0.000000 15.763426 -38.261791 -1.126696 2.173372 -9.367487 0.822159 4.808413 -13.989920 3.304515 0.000000 0.000000 0.000000 0.000000 0.000000 0.000000 4.808428 -13.990104 3.304593 -2.213183 14.832843 18.592239 4.471273 23.403706 -19.992913 0.000000 0.000000 0.000000 4.808428 -13.990104 3.304593 -5.014286 -24.209493 -12.063859 0.000000 0.000000 0.000000 -45.768538 -34.792386 -54.633003 -8.986549 -15.490767 0.047431 0.000000 0.000000 0.000000 4.808428 -13.990104 3.304593 0.548286 -5.780502 9.082011 0.000000 0.000000 0.000000 -10.753126 9.687312 2.595254 13.138248 10.738119 3.535818 0.000000 0.000000 0.000000 
2.204063 68.867432 163.250580 0.000000 0.000000 0.000000 14.859818 -43.281700 -1.511559 14.879311 34.289343 23.634454 48.889613 14.224058 -8.472733 16.785181 -10.402063 -4.719087 13.411474 16.337976 40.940205 0.000000 0.000000 0.000000 14.859818 -43.281700 -1.511559 -66.241271 -1.109852 10.780029 58.258119 2.854876 -8.160210 -6.845301 11.144943 10.944377 -2.924511 2.984622 1.673450 0.000000 0.000000 0.000000 14.859818 -43.281700 -1.511559 2.201302 -8.951603 1.112377 4.695483 -13.321983 3.018847 0.000000 0.000000 0.000000 0.000000 0.000000 0.000000 4.695423 -13.321830 3.018841 -4.429386 16.505509 19.109575 5.391633 25.014139 -19.400329 0.000000 0.000000 0.000000 4.695423 -13.321830 3.018841 -4.736586 -24.033771 -11.562549 0.000000 0.000000 0.000000 -47.608676 -35.222507 -55.319143 -8.725328 -14.972060 -2.859726 0.000000 0.000000 0.000000 4.695423 -13.321830 3.018841 0.489544 -6.448413 8.415421 0.000000 0.000000 0.000000 -12.910688 9.604463 1.956859 6.881775 11.381505 4.245365 0.000000 0.000000 0.000000 
2.534698 70.052231 167.529709 0.000000 0.000000 0.000000 14.218952 -46.443063 -1.478300 2.484649 29.857547 32.791612 64.511792 14.783693 -7.662145 5.780452 -7.467968 -2.164799 3.257470 6.686041 2.066120 0.000000 0.000000 0.000000 14.218952 -46.443063 -1.478300 -62.520574 3.347857 11.010175 56.864535 2.992973 -7.768603 -10.002907 11.224231 13.501382 -2.924475 2.984595 1.673431 0.000000 0.000000 0.000000 14.218952 -46.443063 -1.478300 2.210650 -8.140000 1.245634 4.573195 -12.484973 2.588476 0.000000 0.000000 0.000000 0.000000 0.000000 0.000000 4.573158 -12.484958 2.588517 -5.940749 17.584419 19.443786 6.154468 26.067204 -18.559448 0.000000 0.000000 0.000000 4.573158 -12.484958 2.588517 -4.108527 -23.662869 -10.374143 0.000000 0.000000 0.000000 -50.189985 -37.221133 -54.819290 -8.386782 -16.198352 -4.333046 0.000000 0.000000 0.000000 4.573158 -12.484958 2.588517 0.372876 -7.124376 7.242100 0.000000 0.000000 0.000000 -16.551918 9.814660 1.562692 0.815422 12.834003 4.295120 0.000000 0.000000 0.000000 
2.901423 71.313324 172.218857 0.000000 0.000000 0.000000 12.489461 -47.636587 -1.341905 -10.163777 23.288006 40.252695 74.808057 12.161135 -5.202102 -3.717585 -6.714026 -0.639701 -10.208735 11.892395 -23.404917 0.000000 0.000000 0.000000 12.489461 -47.636587 -1.341905 -57.416305 8.599995 9.062006 55.881305 4.167740 -7.252414 -13.939748 9.170634 15.703469 -2.924361 2.984537 1.673374 0.000000 0.000000 0.000000 12.489461 -47.636587 -1.341905 2.215701 -7.179484 1.313280 4.440399 -11.538513 1.966149 0.000000 0.000000 0.000000 0.000000 0.000000 0.000000 4.440400 -11.538521 1.966184 -6.498108 17.967627 19.561660 6.830981 26.528526 -17.466426 0.000000 0.000000 0.000000 4.440400 -11.538521 1.966184 -2.527659 -22.507165 -7.315139 0.000000 0.000000 0.000000 -53.654165 -41.530477 -52.612322 -7.593275 -21.434858 -5.121155 0.000000 0.000000 0.000000 4.440400 -11.538521 1.966184 0.155733 -7.812770 5.596937 0.000000 0.000000 0.000000 -21.435620 10.777730 1.532105 -5.020443 15.600587 3.057482 0.000000 0.000000 0.000000 
3.116536 72.142570 177.326553 0.000000 0.000000 0.000000 9.849370 -48.075236 -1.006944 -20.697005 15.985117 44.248196 79.062821 9.019693 -2.666364 -8.015516 -6.549709 -0.439314 -9.761876 11.291729 -26.735515 0.000000 0.000000 0.000000 9.849370 -48.075236 -1.006944 -51.063078 13.724373 4.953345 55.576706 5.173263 -6.704946 -18.738744 7.497109 17.769594 -2.924193 2.984461 1.673282 0.000000 0.000000 0.000000 9.849370 -48.075236 -1.006944 2.208367 -6.235257 1.259438 4.320882 -10.530092 1.215161 0.000000 0.000000 0.000000 0.000000 0.000000 0.000000 4.320911 -10.530098 1.215153 -3.655059 17.172101 18.044996 7.272131 25.261373 -15.553367 0.000000 0.000000 0.000000 4.320911 -10.530098 1.215153 -0.241341 -20.061548 -2.596767 0.000000 0.000000 0.000000 -57.245981 -47.230386 -48.212905 -6.524106 -31.016517 -6.070507 0.000000 0.000000 0.000000 4.320911 -10.530098 1.215153 -0.313161 -8.505972 2.309046 0.000000 0.000000 0.000000 -29.075145 12.430061 2.531239 -10.802181 23.876772 0.431519 0.000000 0.000000 0.000000 
3.037340 72.797516 182.764252 0.000000 0.000000 0.000000 7.361665 -48.406336 -0.461564 -29.236270 9.861742 45.392440 77.897590 5.763112 -0.217034 -8.537741 -6.804059 -2.890039 -8.152626 8.306046 -22.605438 0.000000 0.000000 0.000000 7.361665 -48.406336 -0.461564 -43.578953 17.393102 -0.668690 54.804427 6.523386 -6.097704 -23.680922 6.450957 19.426796 -2.923816 2.984319 1.673076 0.000000 0.000000 0.000000 7.361665 -48.406336 -0.461564 2.202661 -5.366462 1.128403 4.273165 -9.482125 0.641791 0.000000 0.000000 0.000000 0.000000 0.000000 0.000000 4.273170 -9.482151 0.641790 2.417288 15.032405 14.306619 7.606886 21.709481 -12.790071 0.000000 0.000000 0.000000 4.273170 -9.482151 0.641790 1.961449 -16.441689 2.865522 0.000000 0.000000 0.000000 -60.163544 -53.159198 -42.050736 -6.113977 -42.102843 -7.219816 0.000000 0.000000 0.000000 4.273170 -9.482151 0.641790 -0.731622 -9.222698 -1.701831 0.000000 0.000000 0.000000 -40.709048 14.568932 4.456491 -17.522381 36.406964 1.059195 0.000000 0.000000 0.000000 
